<svg width="21" height="18" viewBox="0 0 21 18" fill="none" xmlns="http://www.w3.org/2000/svg">
<path d="M11.0156 5.01562H12.5156V9.23438L16.0312 11.3438L15.2812 12.5625L11.0156 9.98438V5.01562ZM5.625 2.625C7.40625 0.875 9.53125 0 12 0C14.4688 0 16.5781 0.875 18.3281 2.625C20.1094 4.375 21 6.5 21 9C21 11.5 20.1094 13.625 18.3281 15.375C16.5781 17.125 14.4688 18 12 18C10.9688 18 9.82812 17.75 8.57812 17.25C7.35938 16.7188 6.39062 16.0938 5.67188 15.375L7.07812 13.9219C8.45312 15.2969 10.0938 15.9844 12 15.9844C13.9375 15.9844 15.5938 15.3125 16.9688 13.9688C18.3438 12.5938 19.0312 10.9375 19.0312 9C19.0312 7.0625 18.3438 5.42188 16.9688 4.07812C15.5938 2.70313 13.9375 2.01562 12 2.01562C10.0625 2.01562 8.40625 2.70313 7.03125 4.07812C5.6875 5.42188 5.01562 7.0625 5.01562 9H8.01562L3.98438 13.0312L3.89062 12.8906L0 9H3C3 6.5 3.875 4.375 5.625 2.625Z" fill="#F2870D"/>
</svg>
