<svg width="12" height="12" viewBox="0 0 12 12" fill="none" xmlns="http://www.w3.org/2000/svg">
<path d="M4.64844 8.75L9.89844 3.5L9.07812 2.65234L4.64844 7.08203L2.57031 5.00391L1.75 5.82422L4.64844 8.75ZM1.69531 1.72266C2.84375 0.574219 4.22005 0 5.82422 0C7.42839 0 8.79557 0.574219 9.92578 1.72266C11.0742 2.85286 11.6484 4.22005 11.6484 5.82422C11.6484 7.42839 11.0742 8.80469 9.92578 9.95312C8.79557 11.0833 7.42839 11.6484 5.82422 11.6484C4.22005 11.6484 2.84375 11.0833 1.69531 9.95312C0.565104 8.80469 0 7.42839 0 5.82422C0 4.22005 0.565104 2.85286 1.69531 1.72266Z" fill="#16A34A"/>
</svg>
