<svg width="21" height="20" viewBox="0 0 21 20" fill="none" xmlns="http://www.w3.org/2000/svg">
<path d="M14.625 16.5938C15.0312 16.1875 15.5 15.9844 16.0312 15.9844C16.5625 15.9844 17.0156 16.1875 17.3906 16.5938C17.7969 17 18 17.4688 18 18C18 18.5312 17.7969 19 17.3906 19.4062C17.0156 19.7812 16.5625 19.9688 16.0312 19.9688C15.5 19.9688 15.0312 19.7812 14.625 19.4062C14.2188 19 14.0156 18.5312 14.0156 18C14.0156 17.4688 14.2188 17 14.625 16.5938ZM0 0H3.28125L4.21875 1.96875H19.0312C19.3125 1.96875 19.5469 2.07812 19.7344 2.29688C19.9219 2.48438 20.0156 2.71875 20.0156 3C20.0156 3.03125 19.9688 3.1875 19.875 3.46875L16.3125 9.9375C15.9375 10.625 15.3594 10.9688 14.5781 10.9688H7.125L6.23438 12.6094L6.1875 12.75C6.1875 12.9062 6.26562 12.9844 6.42188 12.9844H18V15H6C5.46875 15 5 14.7969 4.59375 14.3906C4.21875 13.9844 4.03125 13.5156 4.03125 12.9844C4.03125 12.6719 4.10938 12.3594 4.26562 12.0469L5.625 9.5625L2.01562 1.96875H0V0ZM4.59375 16.5938C5 16.1875 5.46875 15.9844 6 15.9844C6.53125 15.9844 7 16.1875 7.40625 16.5938C7.8125 17 8.01562 17.4688 8.01562 18C8.01562 18.5312 7.8125 19 7.40625 19.4062C7 19.7812 6.53125 19.9688 6 19.9688C5.46875 19.9688 5 19.7812 4.59375 19.4062C4.21875 19 4.03125 18.5312 4.03125 18C4.03125 17.4688 4.21875 17 4.59375 16.5938Z" fill="white"/>
</svg>
