<svg width="23" height="17" viewBox="0 0 23 17" fill="none" xmlns="http://www.w3.org/2000/svg">
<path d="M15.9375 14.1094C16.2188 14.3906 16.5781 14.5312 17.0156 14.5312C17.4531 14.5312 17.8125 14.3906 18.0938 14.1094C18.375 13.7969 18.5156 13.4375 18.5156 13.0312C18.5156 12.625 18.375 12.2812 18.0938 12C17.8125 11.6875 17.4531 11.5312 17.0156 11.5312C16.5781 11.5312 16.2188 11.6875 15.9375 12C15.6562 12.2812 15.5156 12.625 15.5156 13.0312C15.5156 13.4375 15.6562 13.7969 15.9375 14.1094ZM18.5156 5.53125H16.0312V8.01562H20.4844L18.5156 5.53125ZM3.9375 14.1094C4.21875 14.3906 4.57812 14.5312 5.01562 14.5312C5.45312 14.5312 5.8125 14.3906 6.09375 14.1094C6.375 13.7969 6.51562 13.4375 6.51562 13.0312C6.51562 12.625 6.375 12.2812 6.09375 12C5.8125 11.6875 5.45312 11.5312 5.01562 11.5312C4.57812 11.5312 4.21875 11.6875 3.9375 12C3.65625 12.2812 3.51562 12.625 3.51562 13.0312C3.51562 13.4375 3.65625 13.7969 3.9375 14.1094ZM19.0312 4.03125L22.0312 8.01562V13.0312H20.0156C20.0156 13.8438 19.7188 14.5469 19.125 15.1406C18.5312 15.7344 17.8281 16.0312 17.0156 16.0312C16.2031 16.0312 15.5 15.7344 14.9062 15.1406C14.3125 14.5469 14.0156 13.8438 14.0156 13.0312H8.01562C8.01562 13.8438 7.71875 14.5469 7.125 15.1406C6.53125 15.7344 5.82812 16.0312 5.01562 16.0312C4.20312 16.0312 3.5 15.7344 2.90625 15.1406C2.3125 14.5469 2.01562 13.8438 2.01562 13.0312H0V2.01562C0 1.48438 0.203125 1.01563 0.609375 0.609375C1.01562 0.203125 1.48438 0 2.01562 0H16.0312V4.03125H19.0312Z" fill="#F2870D"/>
</svg>
