<svg width="24" height="24" viewBox="0 0 24 24" fill="none" xmlns="http://www.w3.org/2000/svg">
<path d="M11.0156 23.5781V19.9688C6 19.7344 2.01562 15.5625 2.01562 10.5C2.01562 5.25 6.28125 0.984375 11.4844 0.984375C16.7344 0.984375 21 5.25 21 10.5C21 15.4688 17.5781 20.4375 12.4219 22.9219L11.0156 23.5781ZM11.4844 3C7.35938 3 3.98438 6.375 3.98438 10.5C3.98438 14.625 7.35938 18 11.4844 18H12.9844V20.2969C16.6406 18 18.9844 14.2031 18.9844 10.5C18.9844 6.375 15.6562 3 11.4844 3ZM10.5 14.4844H12.5156V16.5H10.5V14.4844ZM12.5156 12.9844H10.5C10.5 9.75 13.5 9.98438 13.5 8.01562C13.5 6.89062 12.6094 6 11.4844 6C10.4062 6 9.51562 6.89062 9.51562 8.01562H7.5C7.5 5.8125 9.28125 3.98438 11.4844 3.98438C13.6875 3.98438 15.5156 5.8125 15.5156 8.01562C15.5156 10.5 12.5156 10.7344 12.5156 12.9844Z" fill="#F2870D"/>
</svg>
