<svg width="22" height="22" viewBox="0 0 22 22" fill="none" xmlns="http://www.w3.org/2000/svg">
<path d="M21.3126 10.6562C21.3126 16.543 16.5431 21.3125 10.6563 21.3125C4.76963 21.3125 9.82285e-05 16.543 9.82285e-05 10.6562C9.82285e-05 4.76953 4.76963 0 10.6563 0C16.5431 0 21.3126 4.76953 21.3126 10.6562ZM11.3868 15.5547L17.1876 9.75391C17.5743 9.32422 17.5743 8.67969 17.1876 8.29297L16.4571 7.5625C16.0704 7.17578 15.3829 7.17578 14.9962 7.5625L10.6563 11.9453L6.27354 7.5625C5.88682 7.17578 5.19932 7.17578 4.8126 7.5625L4.08213 8.29297C3.69541 8.67969 3.69541 9.36719 4.08213 9.75391L9.92588 15.5547C10.3126 15.9844 10.9571 15.9844 11.3868 15.5547Z" fill="black"/>
</svg>
