<svg width="20" height="20" viewBox="0 0 20 20" fill="none" xmlns="http://www.w3.org/2000/svg">
<path d="M9 15.9844H10.9688V13.9688H9V15.9844ZM9.98438 0C4.45312 0 0 4.45312 0 9.98438C0 15.5156 4.45312 19.9688 9.98438 19.9688C15.5156 19.9688 19.9688 15.5156 19.9688 9.98438C19.9688 4.45312 15.5156 0 9.98438 0ZM9.98438 18C5.57812 18 1.96875 14.3906 1.96875 9.98438C1.96875 5.57812 5.57812 1.96875 9.98438 1.96875C14.3906 1.96875 18 5.57812 18 9.98438C18 14.3906 14.3906 18 9.98438 18ZM9.98438 3.98438C7.78125 3.98438 6 5.76562 6 7.96875H7.96875C7.96875 6.89062 8.90625 6 9.98438 6C11.0625 6 12 6.89062 12 7.96875C12 9.98438 9 9.75 9 12.9844H10.9688C10.9688 10.7344 13.9688 10.5 13.9688 7.96875C13.9688 5.76562 12.1875 3.98438 9.98438 3.98438Z" fill="#94A3B8"/>
</svg>
