<svg width="12" height="12" viewBox="0 0 12 12" fill="none" xmlns="http://www.w3.org/2000/svg">
<path d="M1.66667 11.1113C1.36111 11.1113 1.09954 11.0025 0.881945 10.7849C0.664352 10.5673 0.555556 10.3058 0.555556 10.0002V3.73633C0.388889 3.63448 0.25463 3.50253 0.152778 3.34049C0.0509259 3.17846 0 2.99096 0 2.77799V1.11133C0 0.805772 0.108796 0.544198 0.326389 0.326605C0.543982 0.109013 0.805556 0.000216484 1.11111 0.000216484H10C10.3056 0.000216484 10.5671 0.109013 10.7847 0.326605C11.0023 0.544198 11.1111 0.805772 11.1111 1.11133V2.77799C11.1111 2.99096 11.0602 3.17846 10.9583 3.34049C10.8565 3.50253 10.7222 3.63448 10.5556 3.73633V10.0002C10.5556 10.3058 10.4468 10.5673 10.2292 10.7849C10.0116 11.0025 9.75 11.1113 9.44445 11.1113H1.66667ZM1.66667 3.88911V10.0002H9.44445V3.88911H1.66667ZM1.11111 2.77799H10V1.11133H1.11111V2.77799ZM3.88889 6.66688H7.22222V5.55577H3.88889V6.66688Z" fill="#434655"/>
</svg>
