<svg width="20" height="20" viewBox="0 0 20 20" fill="none" xmlns="http://www.w3.org/2000/svg">
<path d="M14.5781 10.9688C15.3281 10.9688 15.9844 10.5938 16.3125 9.9375L19.875 3.46875C20.25 2.8125 19.7812 1.96875 19.0312 1.96875H4.21875L3.28125 0H0V1.96875H2.01562L5.625 9.5625L4.26562 12C3.51562 13.3594 4.5 15 6 15H18V12.9844H6L7.125 10.9688H14.5781ZM5.15625 3.98438H17.3437L14.5781 9H7.54687L5.15625 3.98438ZM6 15.9844C4.92187 15.9844 4.03125 16.875 4.03125 18C4.03125 19.0781 4.92187 19.9688 6 19.9688C7.125 19.9688 8.01562 19.0781 8.01562 18C8.01562 16.875 7.125 15.9844 6 15.9844ZM16.0312 15.9844C14.9062 15.9844 14.0156 16.875 14.0156 18C14.0156 19.0781 14.9062 19.9688 16.0312 19.9688C17.1094 19.9688 18 19.0781 18 18C18 16.875 17.1094 15.9844 16.0312 15.9844Z" fill="#F2870D"/>
</svg>
