<svg width="20" height="20" viewBox="0 0 20 20" fill="none" xmlns="http://www.w3.org/2000/svg">
<path d="M19.9688 9.98438C19.9688 11.2969 19.7344 12.5312 19.2656 13.6875C18.8281 14.8125 18.2031 15.8281 17.3906 16.7344C16.5781 17.6094 15.625 18.3281 14.5312 18.8906C13.4375 19.4531 12.25 19.7969 10.9688 19.9219V12.9844H13.9688V9.98438H10.9688V7.96875C10.9688 7.71875 11.0625 7.5 11.25 7.3125C11.4688 7.09375 11.7188 6.98438 12 6.98438H13.9688V3.98438H11.4844C10.8281 3.98438 10.2344 4.14062 9.70312 4.45312C9.20312 4.76563 8.78125 5.1875 8.4375 5.71875C8.125 6.25 7.96875 6.84375 7.96875 7.5V9.98438H6V12.9844H7.96875V19.7812C6.84375 19.5625 5.79688 19.1562 4.82812 18.5625C3.85938 17.9688 3 17.2344 2.25 16.3594C1.53125 15.4844 0.96875 14.5156 0.5625 13.4531C0.1875 12.3594 0 11.2031 0 9.98438C0 8.60938 0.25 7.32812 0.75 6.14062C1.28125 4.92188 2 3.85937 2.90625 2.95312C3.84375 2.01562 4.90625 1.29688 6.09375 0.796875C7.3125 0.265625 8.60938 0 9.98438 0C11.3594 0 12.6406 0.265625 13.8281 0.796875C15.0469 1.29688 16.1094 2.01562 17.0156 2.95312C17.9531 3.85937 18.6719 4.92188 19.1719 6.14062C19.7031 7.32812 19.9688 8.60938 19.9688 9.98438Z" fill="#CBD5E1"/>
</svg>
