<svg width="13" height="7" viewBox="0 0 13 7" fill="none" xmlns="http://www.w3.org/2000/svg">
<path d="M11.6759 5.82422V1.17578H10.5001V3.5H9.35166V1.17578H8.17588V3.5H7.0001V1.17578H5.85166V3.5H4.67588V1.17578H3.5001V3.5H2.35166V1.17578H1.17588V5.82422H11.6759ZM11.6759 0C11.9858 0 12.2592 0.11849 12.4962 0.355469C12.7332 0.592448 12.8517 0.865885 12.8517 1.17578V5.82422C12.8517 6.13411 12.7332 6.40755 12.4962 6.64453C12.2592 6.88151 11.9858 7 11.6759 7H1.17588C0.865983 7 0.592546 6.88151 0.355567 6.64453C0.118587 6.40755 9.77516e-05 6.13411 9.77516e-05 5.82422V1.17578C9.77516e-05 0.865885 0.118587 0.592448 0.355567 0.355469C0.592546 0.11849 0.865983 0 1.17588 0H11.6759Z" fill="#F2870D"/>
</svg>
