<svg width="69" height="33" viewBox="0 0 69 33" fill="none" xmlns="http://www.w3.org/2000/svg">
<path d="M9.46094 9.32422L8.80469 6.50781L10.9922 4.62109L8.12109 4.375L7 1.75L5.87891 4.40234L3.00781 4.62109L5.19531 6.50781L4.53906 9.32422L7 7.84766L9.46094 9.32422ZM2.87109 1.72266C4.01953 0.574219 5.39583 0 7 0C8.60417 0 9.97135 0.574219 11.1016 1.72266C12.25 2.85286 12.8242 4.22005 12.8242 5.82422C12.8242 7.42839 12.25 8.80469 11.1016 9.95312C9.97135 11.0833 8.60417 11.6484 7 11.6484C5.39583 11.6484 4.01953 11.0833 2.87109 9.95312C1.74089 8.80469 1.17578 7.42839 1.17578 5.82422C1.17578 4.22005 1.74089 2.85286 2.87109 1.72266ZM65.4609 9.32422L64.8047 6.50781L66.9922 4.62109L64.1211 4.375L63 1.75L61.8789 4.40234L59.0078 4.62109L61.1953 6.50781L60.5391 9.32422L63 7.84766L65.4609 9.32422ZM58.8711 1.72266C60.0195 0.574219 61.3958 0 63 0C64.6042 0 65.9714 0.574219 67.1016 1.72266C68.25 2.85286 68.8242 4.22005 68.8242 5.82422C68.8242 7.42839 68.25 8.80469 67.1016 9.95312C65.9714 11.0833 64.6042 11.6484 63 11.6484C61.3958 11.6484 60.0195 11.0833 58.8711 9.95312C57.7409 8.80469 57.1758 7.42839 57.1758 5.82422C57.1758 4.22005 57.7409 2.85286 58.8711 1.72266ZM49 27.8203L51.1875 29.1328L50.6133 26.6445L52.5547 24.9492L49.9844 24.7305L49 22.3789V27.8203ZM54.8242 24.2109L51.6523 26.9727L52.6094 31.0742L49 28.8867L45.3906 31.0742L46.3477 26.9727L43.1758 24.2109L47.3594 23.8555L49 20L50.6406 23.8555L54.8242 24.2109Z" fill="#FBBF24"/>
</svg>
