<svg width="20" height="18" viewBox="0 0 20 18" fill="none" xmlns="http://www.w3.org/2000/svg">
<path d="M6.42188 13.5469C7.42188 14.5156 8.60938 15 9.98438 15C11.3594 15 12.5312 14.5156 13.5 13.5469C14.5 12.5469 15 11.3594 15 9.98438C15 8.60938 14.5 7.4375 13.5 6.46875C12.5312 5.46875 11.3594 4.96875 9.98438 4.96875C8.60938 4.96875 7.42188 5.46875 6.42188 6.46875C5.45312 7.4375 4.96875 8.60938 4.96875 9.98438C4.96875 11.3594 5.45312 12.5469 6.42188 13.5469ZM6.98438 0H12.9844L14.8125 1.96875H18C18.5312 1.96875 18.9844 2.17187 19.3594 2.57812C19.7656 2.98438 19.9688 3.45313 19.9688 3.98438V15.9844C19.9688 16.5156 19.7656 16.9844 19.3594 17.3906C18.9844 17.7969 18.5312 18 18 18H1.96875C1.4375 18 0.96875 17.7969 0.5625 17.3906C0.1875 16.9844 0 16.5156 0 15.9844V3.98438C0 3.45313 0.1875 2.98438 0.5625 2.57812C0.96875 2.17187 1.4375 1.96875 1.96875 1.96875H5.15625L6.98438 0ZM7.73438 12.2344C7.10938 11.6094 6.79688 10.8594 6.79688 9.98438C6.79688 9.10938 7.10938 8.35938 7.73438 7.73438C8.35938 7.10938 9.10938 6.79688 9.98438 6.79688C10.8594 6.79688 11.6094 7.10938 12.2344 7.73438C12.8594 8.35938 13.1719 9.10938 13.1719 9.98438C13.1719 10.8594 12.8594 11.6094 12.2344 12.2344C11.6094 12.8594 10.8594 13.1719 9.98438 13.1719C9.10938 13.1719 8.35938 12.8594 7.73438 12.2344Z" fill="#CBD5E1"/>
</svg>
