<svg width="13" height="11" viewBox="0 0 13 11" fill="none" xmlns="http://www.w3.org/2000/svg">
<path d="M6.42578 2.92578H7.30078V5.38672L9.35156 6.61719L8.91406 7.32812L6.42578 5.82422V2.92578ZM3.28125 1.53125C4.32031 0.510417 5.5599 0 7 0C8.4401 0 9.67057 0.510417 10.6914 1.53125C11.7305 2.55208 12.25 3.79167 12.25 5.25C12.25 6.70833 11.7305 7.94792 10.6914 8.96875C9.67057 9.98958 8.4401 10.5 7 10.5C6.39844 10.5 5.73307 10.3542 5.00391 10.0625C4.29297 9.7526 3.72786 9.38802 3.30859 8.96875L4.12891 8.12109C4.93099 8.92318 5.88802 9.32422 7 9.32422C8.13021 9.32422 9.09635 8.93229 9.89844 8.14844C10.7005 7.34635 11.1016 6.38021 11.1016 5.25C11.1016 4.11979 10.7005 3.16276 9.89844 2.37891C9.09635 1.57682 8.13021 1.17578 7 1.17578C5.86979 1.17578 4.90365 1.57682 4.10156 2.37891C3.31771 3.16276 2.92578 4.11979 2.92578 5.25H4.67578L2.32422 7.60156L2.26953 7.51953L0 5.25H1.75C1.75 3.79167 2.26042 2.55208 3.28125 1.53125Z" fill="#94A3B8"/>
</svg>
