<svg width="16" height="18" viewBox="0 0 16 18" fill="none" xmlns="http://www.w3.org/2000/svg">
<path d="M12.6359 17.2969C11.6515 18.2344 10.5734 18.0938 9.54214 17.625C8.46401 17.1563 7.43276 17.1563 6.30776 17.625C4.85464 18.2344 4.10464 18.0469 3.26089 17.2969C-1.61411 12.2344 -0.910986 4.59376 4.62026 4.31251C5.97964 4.35938 6.91714 5.06251 7.71401 5.10938C8.88589 4.87501 10.0109 4.17188 11.2765 4.26563C12.7765 4.40626 13.9015 4.96876 14.6515 6.04688C11.5578 7.92188 12.3078 12.0469 15.1671 13.2188C14.6046 14.7188 13.8546 16.1719 12.6359 17.2969ZM7.62026 4.26563C7.43276 2.01563 9.26089 0.187508 11.3234 7.62939e-06C11.6515 2.57813 9.02651 4.50001 7.62026 4.26563Z" fill="#94A3B8"/>
</svg>
