<svg width="20" height="18" viewBox="0 0 20 18" fill="none" xmlns="http://www.w3.org/2000/svg">
<path d="M15.9844 12V14.0156H13.9688V12H15.9844ZM15.9844 8.01562V9.98438H13.9688V8.01562H15.9844ZM18 15.9844V6H9.98438V8.01562H12V9.98438H9.98438V12H12V14.0156H9.98438V15.9844H18ZM7.96875 3.98438V2.01562H6V3.98438H7.96875ZM7.96875 8.01562V6H6V8.01562H7.96875ZM7.96875 12V9.98438H6V12H7.96875ZM7.96875 15.9844V14.0156H6V15.9844H7.96875ZM3.98438 3.98438V2.01562H1.96875V3.98438H3.98438ZM3.98438 8.01562V6H1.96875V8.01562H3.98438ZM3.98438 12V9.98438H1.96875V12H3.98438ZM3.98438 15.9844V14.0156H1.96875V15.9844H3.98438ZM9.98438 3.98438H19.9688V18H0V0H9.98438V3.98438Z" fill="#CBD5E1"/>
</svg>
