<svg width="17" height="17" viewBox="0 0 17 17" fill="none" xmlns="http://www.w3.org/2000/svg">
<mask id="path-1-inside-1_1242_1770" fill="white">
<path d="M8.48523 0L16.9705 8.48529L8.48523 16.9706L-5.64982e-05 8.48529L8.48523 0Z"/>
</mask>
<path d="M8.48523 0L16.9705 8.48529L8.48523 16.9706L-5.64982e-05 8.48529L8.48523 0Z" fill="white"/>
<path d="M8.48523 0L9.19234 -0.707107L8.48523 -1.41421L7.77812 -0.707107L8.48523 0ZM8.48523 0L7.77812 0.707107L16.2634 9.19239L16.9705 8.48529L17.6776 7.77818L9.19234 -0.707107L8.48523 0ZM-5.64982e-05 8.48529L0.70705 9.19239L9.19234 0.707107L8.48523 0L7.77812 -0.707107L-0.707163 7.77818L-5.64982e-05 8.48529Z" fill="#E2E8F0" mask="url(#path-1-inside-1_1242_1770)"/>
</svg>
