<svg width="12" height="12" viewBox="0 0 12 12" fill="none" xmlns="http://www.w3.org/2000/svg">
<path d="M5.24998 4.07422V2.89844H6.39841V4.07422H5.24998ZM2.5156 9.13281C3.44529 10.0443 4.54815 10.5 5.8242 10.5C7.10024 10.5 8.19399 10.0443 9.10545 9.13281C10.0351 8.20312 10.5 7.10026 10.5 5.82422C10.5 4.54818 10.0351 3.45443 9.10545 2.54297C8.19399 1.61328 7.10024 1.14844 5.8242 1.14844C4.54815 1.14844 3.44529 1.61328 2.5156 2.54297C1.60414 3.45443 1.14841 4.54818 1.14841 5.82422C1.14841 7.10026 1.60414 8.20312 2.5156 9.13281ZM1.69529 1.72266C2.84373 0.574219 4.22003 0 5.8242 0C7.42836 0 8.79555 0.574219 9.92576 1.72266C11.0742 2.85286 11.6484 4.22005 11.6484 5.82422C11.6484 7.42839 11.0742 8.80469 9.92576 9.95312C8.79555 11.0833 7.42836 11.6484 5.8242 11.6484C4.22003 11.6484 2.84373 11.0833 1.69529 9.95312C0.565081 8.80469 -2.28882e-05 7.42839 -2.28882e-05 5.82422C-2.28882e-05 4.22005 0.565081 2.85286 1.69529 1.72266ZM5.24998 8.75V5.25H6.39841V8.75H5.24998Z" fill="#475569"/>
</svg>
