<svg width="10" height="13" viewBox="0 0 10 13" fill="none" xmlns="http://www.w3.org/2000/svg">
<path d="M6.48047 4.10156V2.92578C6.48047 2.43359 6.29818 2.01432 5.93359 1.66797C5.58724 1.30339 5.16797 1.12109 4.67578 1.12109C4.18359 1.12109 3.75521 1.30339 3.39062 1.66797C3.04427 2.01432 2.87109 2.43359 2.87109 2.92578V4.10156H6.48047ZM3.85547 8.99609C4.09245 9.23307 4.36589 9.35156 4.67578 9.35156C4.98568 9.35156 5.25911 9.23307 5.49609 8.99609C5.73307 8.75911 5.85156 8.48568 5.85156 8.17578C5.85156 7.86589 5.73307 7.59245 5.49609 7.35547C5.25911 7.11849 4.98568 7 4.67578 7C4.36589 7 4.09245 7.11849 3.85547 7.35547C3.61849 7.59245 3.5 7.86589 3.5 8.17578C3.5 8.48568 3.61849 8.75911 3.85547 8.99609ZM8.17578 4.10156C8.48568 4.10156 8.75911 4.22005 8.99609 4.45703C9.23307 4.67578 9.35156 4.9401 9.35156 5.25V11.1016C9.35156 11.4115 9.23307 11.6849 8.99609 11.9219C8.75911 12.1406 8.48568 12.25 8.17578 12.25H1.17578C0.865885 12.25 0.592448 12.1406 0.355469 11.9219C0.11849 11.6849 0 11.4115 0 11.1016V5.25C0 4.9401 0.11849 4.67578 0.355469 4.45703C0.592448 4.22005 0.865885 4.10156 1.17578 4.10156H1.75V2.92578C1.75 2.1237 2.03255 1.4401 2.59766 0.875C3.18099 0.291667 3.8737 0 4.67578 0C5.47786 0 6.16146 0.291667 6.72656 0.875C7.3099 1.4401 7.60156 2.1237 7.60156 2.92578V4.10156H8.17578Z" fill="#94A3B8"/>
</svg>
